<svg height="512" viewBox="0 0 64 64" width="512" xmlns="http://www.w3.org/2000/svg"><g id="apk-file"><path d="m21 7h40v54h-40z" fill="#ff7956"/><path d="m49 7 8 8h-10a2.006 2.006 0 0 1 -2-2v-10z" fill="#ffda44"/><path d="m57 15v42h-40v-54h28v10a2.006 2.006 0 0 0 2 2z" fill="#ffeb99"/><path d="m3 22h50v20h-50z" fill="#2488ff"/><path d="m17 42h37v1h-37z" fill="#bfb073"/><path d="m53 23h1v20h-1z" fill="#bfb073"/><path d="m21 57h37v1h-37z" fill="#bf5b41"/><path d="m58 58h-1v-42l1 1z" fill="#bf5b41"/><path d="m57 15v1h-8a2 2 0 0 1 -1.73-1z" fill="#bfb073"/><g fill="#fff"><path d="m32 25h-8a1 1 0 0 0 -1 1v13h2v-6h7a1 1 0 0 0 1-1v-6a1 1 0 0 0 -1-1zm-1 6h-6v-4h6z"/><path d="m18 25h-4a3 3 0 0 0 -3 3v11h2v-6h6v6h2v-11a3 3 0 0 0 -3-3zm-5 6v-3a1 1 0 0 1 1-1h4a1 1 0 0 1 1 1v3z"/><path d="m42.168 25.445-3.703 5.555h-1.465v-6h-2v14h2v-6h1.465l3.7 5.555a1 1 0 0 0 .835.445h2v-2h-1.465l-3.335-5 3.333-5h1.467v-2h-2a1 1 0 0 0 -.832.445z"/></g></g></svg>