<?xml version="1.0" encoding="iso-8859-1"?>
<!-- Generator: Adobe Illustrator 19.0.0, SVG Export Plug-In . SVG Version: 6.00 Build 0)  -->
<svg version="1.1" id="Capa_1" xmlns="http://www.w3.org/2000/svg" xmlns:xlink="http://www.w3.org/1999/xlink" x="0px" y="0px"
	 viewBox="0 0 512.005 512.005" style="enable-background:new 0 0 512.005 512.005;" xml:space="preserve">
<path style="fill:#CFD8DC;" d="M416.012,0.005H181.345c-2.831-0.005-5.548,1.115-7.552,3.115l-128,128
	c-1.999,2.004-3.12,4.721-3.115,7.552v320c0,5.891,4.776,10.667,10.667,10.667h362.667c5.891,0,10.667-4.776,10.667-10.667v-448
	C426.679,4.78,421.903,0.005,416.012,0.005z"/>
<path style="fill:#B0BEC5;" d="M185.42,0.815c-3.985-1.654-8.574-0.745-11.627,2.304l-128,128
	c-4.171,4.16-4.179,10.914-0.019,15.085c2.006,2.011,4.731,3.139,7.571,3.134h128c5.891,0,10.667-4.776,10.667-10.667v-128
	C192.011,6.355,189.409,2.464,185.42,0.815z"/>
<path style="fill:#FFC107;" d="M443.916,343.578c-2.589-2.022-5.965-2.738-9.152-1.941l-85.333,21.333
	c-4.758,1.187-8.094,5.464-8.085,10.368v97.173c-3.504-0.77-7.079-1.164-10.667-1.173c-18.539,0-32,8.981-32,21.333
	c0,12.352,13.461,21.333,32,21.333s32-8.981,32-21.333V381.679l64-16v83.52c-3.503-0.777-7.079-1.178-10.667-1.195
	c-18.539,0-32,8.981-32,21.333s13.461,21.333,32,21.333c18.539,0,32-8.981,32-21.333V352.005
	C448.019,348.714,446.508,345.605,443.916,343.578z"/>
<g>
	<path style="fill:#2196F3;" d="M394.679,320.005c-5.891,0-10.667-4.776-10.667-10.667v-128c0-5.891,4.776-10.667,10.667-10.667h32
		c23.564,0,42.667,19.103,42.667,42.667s-19.102,42.667-42.667,42.667h-21.333v53.333
		C405.345,315.229,400.57,320.005,394.679,320.005z M405.345,234.671h21.333c11.782,0,21.333-9.551,21.333-21.333
		c0-11.782-9.551-21.333-21.333-21.333h-21.333V234.671z"/>
	<path style="fill:#2196F3;" d="M213.345,320.005c-23.467,0-42.667-14.357-42.667-32c0-5.891,4.776-10.667,10.667-10.667
		s10.667,4.776,10.667,10.667c0,3.755,8.789,10.667,21.333,10.667c11.782,0,21.333-9.551,21.333-21.333s-9.551-21.333-21.333-21.333
		h-10.667c-5.891,0-10.667-4.776-10.667-10.667c0-5.891,4.776-10.667,10.667-10.667h10.667c23.564,0,42.667,19.103,42.667,42.667
		S236.909,320.005,213.345,320.005z"/>
	<path style="fill:#2196F3;" d="M213.345,256.005h-10.667c-5.891,0-10.667-4.776-10.667-10.667c0-5.891,4.776-10.667,10.667-10.667
		h10.667c11.782,0,21.333-9.551,21.333-21.333c0-11.782-9.551-21.333-21.333-21.333c-12.544,0-21.333,6.912-21.333,10.667
		c0,5.891-4.776,10.667-10.667,10.667s-10.667-4.776-10.667-10.667c0-17.643,19.2-32,42.667-32
		c23.564,0,42.667,19.103,42.667,42.667S236.909,256.005,213.345,256.005z"/>
	<path style="fill:#2196F3;" d="M320.012,320.005c-23.564,0-42.667-19.103-42.667-42.667v-64c0-23.564,19.103-42.667,42.667-42.667
		s42.667,19.103,42.667,42.667v10.667c0,5.891-4.776,10.667-10.667,10.667c-5.891,0-10.667-4.776-10.667-10.667v-10.667
		c0-11.782-9.551-21.333-21.333-21.333c-11.782,0-21.333,9.551-21.333,21.333v64c0,11.782,9.551,21.333,21.333,21.333
		c11.782,0,21.333-9.551,21.333-21.333h-10.667c-5.891,0-10.667-4.776-10.667-10.667c0-5.891,4.776-10.667,10.667-10.667h21.333
		c5.891,0,10.667,4.776,10.667,10.667v10.667C362.679,300.902,343.576,320.005,320.012,320.005z"/>
</g>
<g>
</g>
<g>
</g>
<g>
</g>
<g>
</g>
<g>
</g>
<g>
</g>
<g>
</g>
<g>
</g>
<g>
</g>
<g>
</g>
<g>
</g>
<g>
</g>
<g>
</g>
<g>
</g>
<g>
</g>
</svg>
