<?xml version="1.0" encoding="iso-8859-1"?>
<!-- Generator: Adobe Illustrator 19.0.0, SVG Export Plug-In . SVG Version: 6.00 Build 0)  -->
<svg version="1.1" id="Layer_1" xmlns="http://www.w3.org/2000/svg" xmlns:xlink="http://www.w3.org/1999/xlink" x="0px" y="0px"
	 viewBox="0 0 512 512" style="enable-background:new 0 0 512 512;" xml:space="preserve">
<polygon style="fill:#FFB74D;" points="403.933,117.434 403.933,197.373 388.569,197.373 387.985,459.55 0,459.55 0,52.45 
	146.53,52.45 198.761,117.434 "/>
<polygon style="fill:#FFA91F;" points="403.933,117.434 403.933,197.373 388.569,197.373 387.985,459.55 250.725,459.55 
	250.725,117.434 "/>
<rect x="65.954" y="179.41" style="fill:#DFDFE2;" width="381.609" height="128.311"/>
<rect x="171.82" y="228.574" style="fill:#ABAAB0;" width="173.221" height="30.73"/>
<rect x="250.726" y="179.41" style="fill:#D7D6D9;" width="196.836" height="128.311"/>
<rect x="250.726" y="228.574" style="fill:#88868F;" width="94.315" height="30.73"/>
<polygon style="fill:#FFC473;" points="512,292.348 449.281,459.55 0,459.55 55.273,292.348 "/>
<polygon style="fill:#FFB74D;" points="512,292.348 449.281,459.55 250.725,459.55 250.725,292.348 "/>
<g>
</g>
<g>
</g>
<g>
</g>
<g>
</g>
<g>
</g>
<g>
</g>
<g>
</g>
<g>
</g>
<g>
</g>
<g>
</g>
<g>
</g>
<g>
</g>
<g>
</g>
<g>
</g>
<g>
</g>
</svg>
