<?xml version="1.0" encoding="iso-8859-1"?>
<!-- Generator: Adobe Illustrator 19.0.0, SVG Export Plug-In . SVG Version: 6.00 Build 0)  -->
<svg version="1.1" id="Capa_1" xmlns="http://www.w3.org/2000/svg" xmlns:xlink="http://www.w3.org/1999/xlink" x="0px" y="0px"
	 viewBox="0 0 400 400" style="enable-background:new 0 0 400 400;" xml:space="preserve">
<path style="fill:#FFDC69;" d="M312,0H112C94.328,0,80,14.328,80,32v8H32C14.328,40,0,54.328,0,72v40c0,17.672,14.328,32,32,32h48
	v56v104v32c0,17.68,14.32,32,32,32h24h24c0,17.672,14.328,32,32,32h96c17.672,0,32-14.328,32-32h24h24c17.672,0,32-14.328,32-32V88
	v-8L320,0H312z M272,72c0-17.672-14.328-32-32-32C257.68,40,272,54.32,272,72z M272,112c0,17.68-14.32,32-32,32
	C257.672,144,272,129.672,272,112z"/>
<path style="fill:#FF8C5A;" d="M272,72v40c0,17.672-14.328,32-32,32H32c-17.672,0-32-14.328-32-32V72c0-17.672,14.328-32,32-32h208
	C257.672,40,272,54.328,272,72z"/>
<path style="fill:#FEEC9F;" d="M288,400h-96c-17.672,0-32-14.328-32-32v-80c0-17.672,14.328-32,32-32h96c17.672,0,32,14.328,32,32
	v80C320,385.672,305.672,400,288,400z"/>
<polygon style="fill:#FFFFFF;" points="224,304 224,352 264,328 "/>
<path style="fill:#FFB855;" d="M320,0h-8v56c0,17.672,14.328,32,32,32h56v-8L320,0z"/>
<g>
	<rect x="24" y="104" style="fill:#FFFFFF;" width="16" height="16"/>
	<path style="fill:#FFFFFF;" d="M63.248,64.168l-16.664,54.704l-0.328,1.088h16.456l2.664-11.488H79.2l2.664,11.488h16.952
		L81.824,64.168C81.824,64.168,63.248,64.168,63.248,64.168z M76.208,95.72H68.36l0.656-2.696c1.112-4.288,2.224-9.552,3.224-14.28
		c0.376,1.608,0.744,3.272,1.12,4.928c0.72,3.2,1.464,6.512,2.192,9.336L76.208,95.72z"/>
	<path style="fill:#FFFFFF;" d="M122.64,88.456c-0.64,2.584-1.208,5.144-1.784,7.704c-0.504,2.232-1.008,4.52-1.56,6.832
		c-0.472-1.96-0.888-3.904-1.312-5.8c-0.624-2.848-1.264-5.8-2.032-8.728l-5.824-24.288H93.192l16.304,55.192l0.176,0.6h18.56
		l16.488-55.792h-16.44L122.64,88.456z"/>
	<rect x="147.888" y="64.16" style="fill:#FFFFFF;" width="16" height="55.792"/>
</g>
<g>
</g>
<g>
</g>
<g>
</g>
<g>
</g>
<g>
</g>
<g>
</g>
<g>
</g>
<g>
</g>
<g>
</g>
<g>
</g>
<g>
</g>
<g>
</g>
<g>
</g>
<g>
</g>
<g>
</g>
</svg>
