<?xml version="1.0" encoding="iso-8859-1"?>
<!-- Generator: Adobe Illustrator 19.0.0, SVG Export Plug-In . SVG Version: 6.00 Build 0)  -->
<svg version="1.1" id="Capa_1" xmlns="http://www.w3.org/2000/svg" xmlns:xlink="http://www.w3.org/1999/xlink" x="0px" y="0px"
	 viewBox="0 0 512 512" style="enable-background:new 0 0 512 512;" xml:space="preserve">
<path style="fill:#AAC4DA;" d="M448,96h-64c-11.767-0.035-21.298-9.566-21.333-21.333v-64L448,96z"/>
<path style="fill:#D9EEF7;" d="M448,96v384c-0.035,11.768-9.566,21.298-21.333,21.333H85.333C73.566,501.298,64.035,491.768,64,480
	V32c0.035-11.767,9.566-21.298,21.333-21.333h277.333v64C362.702,86.434,372.233,95.965,384,96H448z"/>
<circle style="fill:#F2F2F2;" cx="256" cy="298.667" r="32"/>
<path style="fill:#AAC4DA;" d="M256,170.667c70.692,0,128,57.308,128,128s-57.308,128-128,128s-128-57.308-128-128
	S185.308,170.667,256,170.667z M288,298.667c0-17.673-14.327-32-32-32s-32,14.327-32,32c0,17.673,14.327,32,32,32
	S288,316.34,288,298.667z"/>
<g>
	<path style="fill:#4C5B66;" d="M117.333,64H224v21.333H117.333V64z"/>
	<path style="fill:#4C5B66;" d="M117.333,106.667h21.333V128h-21.333V106.667z"/>
	<path style="fill:#4C5B66;" d="M160,106.667h21.333V128H160V106.667z"/>
	<path style="fill:#4C5B66;" d="M455.541,88.459L370.208,3.125c-2-2.001-4.713-3.125-7.541-3.125H85.333c-17.673,0-32,14.327-32,32
		l0,0v448c0,17.673,14.327,32,32,32h341.333c17.673,0,32-14.327,32-32V96C458.666,93.171,457.542,90.459,455.541,88.459z
		 M437.333,480c0,5.891-4.776,10.667-10.667,10.667H85.333c-5.891,0-10.667-4.776-10.667-10.667V32
		c0-5.891,4.776-10.667,10.667-10.667H352v53.333c0,17.673,14.327,32,32,32h21.333V85.333H384c-5.891,0-10.667-4.776-10.667-10.667
		V36.416l64,64V480z"/>
	<path style="fill:#4C5B66;" d="M256,160c-76.583,0-138.667,62.083-138.667,138.667S179.417,437.333,256,437.333
		s138.667-62.083,138.667-138.667C394.578,222.12,332.547,160.088,256,160z M256,416c-64.801,0-117.333-52.532-117.333-117.333
		S191.199,181.333,256,181.333s117.333,52.532,117.333,117.333C373.257,363.436,320.77,415.924,256,416z"/>
	<path style="fill:#4C5B66;" d="M256,256c-23.564,0-42.667,19.103-42.667,42.667s19.103,42.667,42.667,42.667
		s42.667-19.103,42.667-42.667S279.564,256,256,256z M256,320c-11.782,0-21.333-9.551-21.333-21.333
		c0-11.782,9.551-21.333,21.333-21.333c11.782,0,21.333,9.551,21.333,21.333C277.333,310.449,267.782,320,256,320z"/>
	<path style="fill:#4C5B66;" d="M256,213.333c-47.106,0.053-85.28,38.227-85.333,85.333H192c0.035-35.332,28.668-63.965,64-64
		V213.333z"/>
</g>
<g>
</g>
<g>
</g>
<g>
</g>
<g>
</g>
<g>
</g>
<g>
</g>
<g>
</g>
<g>
</g>
<g>
</g>
<g>
</g>
<g>
</g>
<g>
</g>
<g>
</g>
<g>
</g>
<g>
</g>
</svg>
