<?xml version="1.0" encoding="iso-8859-1"?>
<!-- Generator: Adobe Illustrator 19.0.0, SVG Export Plug-In . SVG Version: 6.00 Build 0)  -->
<svg version="1.1" id="Capa_1" xmlns="http://www.w3.org/2000/svg" xmlns:xlink="http://www.w3.org/1999/xlink" x="0px" y="0px"
	 viewBox="0 0 400 400" style="enable-background:new 0 0 400 400;" xml:space="preserve">
<path style="fill:#FFDC69;" d="M312,0H112C94.328,0,80,14.328,80,32v8H32C14.328,40,0,54.328,0,72v40c0,17.672,14.328,32,32,32h48
	v56v104v32c0,17.68,14.32,32,32,32h24h24c0,17.672,14.328,32,32,32h96c17.672,0,32-14.328,32-32h24h24c17.672,0,32-14.328,32-32V88
	v-8L320,0H312z M272,72c0-17.672-14.328-32-32-32C257.68,40,272,54.32,272,72z M272,112c0,17.68-14.32,32-32,32
	C257.672,144,272,129.672,272,112z"/>
<path style="fill:#FF8C5A;" d="M272,72v40c0,17.672-14.328,32-32,32H32c-17.672,0-32-14.328-32-32V72c0-17.672,14.328-32,32-32h208
	C257.672,40,272,54.328,272,72z"/>
<path style="fill:#FEEC9F;" d="M288,400h-96c-17.672,0-32-14.328-32-32v-80c0-17.672,14.328-32,32-32h96c17.672,0,32,14.328,32,32
	v80C320,385.672,305.672,400,288,400z"/>
<polygon style="fill:#FFFFFF;" points="224,304 224,352 264,328 "/>
<path style="fill:#FFB855;" d="M320,0h-8v56c0,17.672,14.328,32,32,32h56v-8L320,0z"/>
<g>
	<rect x="24" y="104" style="fill:#FFFFFF;" width="16" height="16"/>
	<polygon style="fill:#FFFFFF;" points="90.352,77.832 90.352,64.168 53.376,64.168 53.376,119.96 69.376,119.96 69.376,100.152 
		87.36,100.152 87.36,86.48 69.376,86.48 69.376,77.832 	"/>
	<polygon style="fill:#FFFFFF;" points="97.968,64.168 97.968,119.96 134.448,119.96 134.448,106.296 113.968,106.296 
		113.968,64.168 	"/>
	<path style="fill:#FFFFFF;" d="M128.304,64.168l16.304,55.192l0.176,0.6h18.576l16.48-55.792h-16.448l-5.648,24.288
		c-0.64,2.584-1.208,5.136-1.776,7.688c-0.496,2.232-1.008,4.52-1.568,6.832c-0.464-1.96-0.888-3.896-1.312-5.792
		c-0.624-2.856-1.272-5.808-2.04-8.736l-5.816-24.288h-16.928V64.168z"/>
</g>
<g>
</g>
<g>
</g>
<g>
</g>
<g>
</g>
<g>
</g>
<g>
</g>
<g>
</g>
<g>
</g>
<g>
</g>
<g>
</g>
<g>
</g>
<g>
</g>
<g>
</g>
<g>
</g>
<g>
</g>
</svg>
