<svg height="512pt" viewBox="-24 0 512 512" width="512pt" xmlns="http://www.w3.org/2000/svg"><path d="m104.203125 39.078125h64.125v320.625h-64.125zm0 0" fill="#ffb042"/><path d="m456.890625 7.015625v496.96875h-368.71875v-144.28125h80.15625v-352.6875zm0 0" fill="#ffe77a"/><g fill="#fff"><path d="m305.097656 215.421875h15.027344v16.03125h-15.027344zm0 0"/><path d="m305.097656 247.484375h15.027344v16.03125h-15.027344zm0 0"/><path d="m305.097656 279.546875h15.027344v16.03125h-15.027344zm0 0"/></g><path d="m432.84375 7.015625h24.046875v496.96875h-24.046875zm0 0" fill="#ffb042"/><path d="m104.203125 279.546875h-32.0625v32.0625h96.1875v-32.0625h-32.0625v-160.3125h64.125v32.0625h32.0625v-64.125h-224.4375v64.125h32.0625v-32.0625h64.125zm0 0" fill="#78d9ff"/><path d="m160.3125 0v32.0625h-64.125v48.09375h-96.1875v79.15625h47.09375v-32.0625h49.09375v145.28125h-32.0625v47.09375h32.0625v33.0625h-16.03125v159.3125h383.75v-512zm-81.15625 287.5625h32.0625v-175.34375h-79.15625v32.0625h-17.03125v-49.09375h209.40625v49.09375h-17.03125v-32.0625h-79.15625v175.34375h32.0625v17.03125h-81.15625zm32.0625 32.0625h49.09375v33.0625h-49.09375zm337.65625 177.34375h-353.6875v-129.25h65.125v112.21875h15.03125v-336.65625h-15.03125v129.25h-17.03125v-145.28125h49.09375v32.0625h47.09375v-79.15625h-128.25v-33.0625h49.09375v16.03125h15.03125v-48.09375h273.53125zm0 0"/></svg>