<svg height="511pt" viewBox="-59 1 511 511.99905" width="511pt" xmlns="http://www.w3.org/2000/svg"><path d="m364.148438 504.5h-334.316407c-12.054687 0-21.832031-9.773438-21.832031-21.832031v-453.335938c0-12.058593 9.777344-21.832031 21.832031-21.832031h264.824219l91.324219 86.832031v388.335938c0 12.058593-9.773438 21.832031-21.832031 21.832031zm0 0" fill="#f4f4f4"/><path d="m294.65625 7.5h-39.261719l91.324219 86.832031v388.335938c0 12.054687-9.777344 21.832031-21.835938 21.832031h39.265626c12.058593 0 21.832031-9.777344 21.832031-21.832031v-388.335938zm0 0" fill="#e8e8e8"/><path d="m346.71875 57-52.0625-49.5h-264.824219c-12.054687 0-21.832031 9.773438-21.832031 21.832031v27.667969zm0 0" fill="#fba826"/><path d="m265.992188 57h80.726562l-52.0625-49.5h-28.664062zm0 0" fill="#e09721"/><path d="m294.65625 7.5v65c0 12.058594 9.777344 21.832031 21.835938 21.832031h69.488281zm0 0" fill="#dedcdd"/><path d="m8 366.203125v116.464844c0 12.054687 9.773438 21.832031 21.832031 21.832031h334.316407c12.054687 0 21.832031-9.777344 21.832031-21.832031v-116.464844zm0 0" fill="#fba826"/><path d="m346.71875 482.667969c0 12.058593-9.777344 21.832031-21.835938 21.832031h39.265626c.378906 0 .75-.011719 1.125-.027344 1.488281-.074218 2.9375-.300781 4.332031-.660156.699219-.179688 1.382812-.390625 2.050781-.636719.667969-.246093 1.324219-.523437 1.960938-.828125 2.226562-1.074218 4.242187-2.511718 5.972656-4.242187.492187-.492188.960937-1.011719 1.40625-1.550781.222656-.269532.441406-.542969.648437-.824219 1.257813-1.679688 2.277344-3.550781 3.015625-5.554688.242188-.671875.457032-1.355469.636719-2.050781.449219-1.746094.6875-3.574219.6875-5.457031v-116.464844h-39.265625zm0 0" fill="#e09721"/><path d="m82.707031 406.441406c-2.863281 0-5.183593 2.320313-5.183593 5.1875v47.433594c0 2.863281 2.320312 5.183594 5.183593 5.183594s5.1875-2.320313 5.1875-5.183594v-17.664062h32.8125v17.679687c0 2.863281 2.320313 5.1875 5.183594 5.1875 2.867187 0 5.1875-2.324219 5.1875-5.1875v-47.433594c0-2.863281-2.320313-5.1875-5.1875-5.1875-2.863281 0-5.183594 2.324219-5.183594 5.1875v19.378907h-32.8125v-19.394532c0-2.867187-2.324219-5.1875-5.1875-5.1875zm0 0"/><path d="m166.347656 464.246094c2.863282 0 5.1875-2.320313 5.1875-5.1875v-42.671875h15.769532c2.746093 0 4.972656-2.226563 4.972656-4.972657 0-2.746093-2.226563-4.972656-4.972656-4.972656h-41.910157c-2.746093 0-4.972656 2.226563-4.972656 4.972656 0 2.746094 2.226563 4.972657 4.972656 4.972657h15.769531v42.671875c0 2.867187 2.320313 5.1875 5.183594 5.1875zm0 0"/><path d="m254.296875 464.246094c2.863281 0 5.183594-2.320313 5.183594-5.1875v-47.433594c0-2.863281-2.320313-5.1875-5.183594-5.1875-4.0625 0-3.480469 2.03125-23.746094 25.953125-19.578125-23.113281-19.636719-25.953125-23.746093-25.953125-2.863282 0-5.183594 2.324219-5.183594 5.1875v47.433594c0 2.863281 2.320312 5.1875 5.183594 5.1875 2.863281 0 5.1875-2.320313 5.1875-5.1875v-33.460938c14.355468 16.511719 14.34375 19.6875 18.558593 19.644532 4.210938.042968 4.1875-3.113282 18.5625-19.644532v33.460938c-.003906 2.867187 2.316407 5.1875 5.183594 5.1875zm0 0"/><path d="m276.589844 406.441406c-2.863282 0-5.183594 2.320313-5.183594 5.1875v47.433594c0 2.863281 2.320312 5.183594 5.183594 5.183594h34.898437c2.746094 0 4.972657-2.226563 4.972657-4.972656 0-2.746094-2.226563-4.972657-4.972657-4.972657h-29.710937v-42.671875c0-2.867187-2.324219-5.1875-5.1875-5.1875zm0 0"/><path d="m385.980469 133.152344c4.144531 0 7.5-3.359375 7.5-7.5v-31.265625c.015625-2.0625-.816407-4.042969-2.332031-5.488281l-91.308594-86.820313c-1.425782-1.355469-3.28125-2.0859375-5.222656-2.078125h-264.785157c-16.160156 0-29.332031 13.148438-29.332031 29.332031v453.335938c0 16.066406 13.03125 29.332031 29.332031 29.332031h334.316407c15.988281 0 29.332031-12.980469 29.332031-29.332031v-329.015625c0-4.140625-3.359375-7.5-7.5-7.5-4.144531 0-7.5 3.359375-7.5 7.5v205.050781h-286.957031c-4.144532 0-7.5 3.359375-7.5 7.5s3.355468 7.5 7.5 7.5h286.957031v108.964844c0 7.902343-6.429688 14.332031-14.332031 14.332031h-334.316407c-7.902343 0-14.332031-6.429688-14.332031-14.332031v-108.964844h48.023438c4.140624 0 7.5-3.359375 7.5-7.5s-3.359376-7.5-7.5-7.5h-48.023438v-294.203125h271.65625v8c0 16.175781 13.160156 29.332031 29.332031 29.332031h61.992188v23.820313c0 4.140625 3.359375 7.5 7.5 7.5zm-370.480469-83.652344v-20.167969c0-7.902343 6.429688-14.332031 14.332031-14.332031h257.324219v34.5zm300.992188 37.335938c-7.90625 0-14.335938-6.433594-14.335938-14.335938v-47.519531l65.054688 61.855469zm0 0"/></svg>