<svg height="512" viewBox="0 0 58 58" width="512" xmlns="http://www.w3.org/2000/svg"><g id="Page-1" fill="none" fill-rule="evenodd"><g id="040---JPG" fill-rule="nonzero"><path id="Shape" d="m46 14v43c0 .5522847-.4477153 1-1 1h-44c-.55228475 0-1-.4477153-1-1v-56c0-.55228475.44771525-1 1-1h31z" fill="#2fa8cc"/><path id="Shape" d="m33 14h13l-14-14v13c0 .5522847.4477153 1 1 1z" fill="#67b9cc"/><path id="Shape" d="m28.86 29.72-17.86 28.28h-10c-.55228475 0-1-.4477153-1-1v-13.81l11.16-16.74 5.71-8.57c.3616676-.539975.9645441-.8689524 1.614339-.8809118.649795-.0119594 1.2643687.2946109 1.645661.8209118l6.05 8.25z" fill="#3f5c6c"/><path id="Shape" d="m46 37.6v19.4c0 .5522847-.4477153 1-1 1h-34l17.86-28.28.04-.06 4.4-6.97c.3691068-.5803816 1.0099482-.9310557 1.6977552-.9290267.6878071.0020289 1.3265684.3564776 1.6922448.9390267l4.37 7z" fill="#35495e"/><rect id="Rectangle-path" fill="#f0c419" height="18" rx="1" width="42" x="16" y="34"/><circle id="Oval" cx="11" cy="11" fill="#f0c419" r="3"/><g fill="#f3d55b"><path id="Shape" d="m11 6c-.5522847 0-1-.44771525-1-1v-1c0-.55228475.4477153-1 1-1s1 .44771525 1 1v1c0 .55228475-.4477153 1-1 1z"/><path id="Shape" d="m5 12h-1c-.55228475 0-1-.4477153-1-1s.44771525-1 1-1h1c.55228475 0 1 .4477153 1 1s-.44771525 1-1 1z"/><path id="Shape" d="m11 19c-.5522847 0-1-.4477153-1-1v-1c0-.5522847.4477153-1 1-1s1 .4477153 1 1v1c0 .5522847-.4477153 1-1 1z"/><path id="Shape" d="m18 12h-1c-.5522847 0-1-.4477153-1-1s.4477153-1 1-1h1c.5522847 0 1 .4477153 1 1s-.4477153 1-1 1z"/></g><path id="Shape" d="m30 37h-6c-.5522847 0-1 .4477153-1 1s.4477153 1 1 1h2v6.5c0 .8284271-.6715729 1.5-1.5 1.5s-1.5-.6715729-1.5-1.5v-.5c0-.5522847-.4477153-1-1-1s-1 .4477153-1 1v.5c.0000001 1.9329966 1.5670034 3.4999999 3.5 3.4999999s3.4999999-1.5670033 3.5-3.4999999v-6.5h2c.5522847 0 1-.4477153 1-1s-.4477153-1-1-1z" fill="#3d324c"/><path id="Shape" d="m37.5 37h-3.5c-.5522847 0-1 .4477153-1 1v10c0 .5522847.4477153 1 1 1s1-.4477153 1-1v-4h2.5c1.9329966 0 3.5-1.5670034 3.5-3.5s-1.5670034-3.5-3.5-3.5zm0 5h-2.5v-3h2.5c.8284271 0 1.5.6715729 1.5 1.5s-.6715729 1.5-1.5 1.5z" fill="#3d324c"/><path id="Shape" d="m52 43h-4c-.5522847 0-1 .4477153-1 1s.4477153 1 1 1h1v1c0 .5522847-.4477153 1-1 1h-2c-.5522847 0-1-.4477153-1-1v-6c0-.5522847.4477153-1 1-1h2c.5522847 0 1 .4477153 1 1s.4477153 1 1 1 1-.4477153 1-1c0-1.6568542-1.3431458-3-3-3h-2c-1.6568542 0-3 1.3431458-3 3v6c0 1.6568542 1.3431458 3 3 3h2c1.6568542 0 3-1.3431458 3-3v-1h1c.5522847 0 1-.4477153 1-1s-.4477153-1-1-1z" fill="#3d324c"/><path id="Shape" d="m26.18 26.07-2.77 3.15c-.1787951.2050126-.4333938.3283393-.7050984.3415471-.2717046.0132079-.5370647-.084843-.7349016-.2715471l-2.78-2.64c-.3896281-.3598394-.9903719-.3598394-1.38 0l-2.78 2.64c-.1978369.1867041-.463197.284755-.7349016.2715471-.2717046-.0132078-.5263033-.1365345-.7050984-.3415471l-2.43-2.77 5.71-8.57c.3616676-.539975.9645441-.8689524 1.614339-.8809118.649795-.0119594 1.2643687.2946109 1.645661.8209118z" fill="#d1d4d1"/><path id="Shape" d="m41.06 29.7-.89.96c-.4048186.4295623-1.0774137.4605371-1.52.07l-2.93-2.64c-.41331-.3578334-1.02669-.3578334-1.44 0l-2.93 2.64c-.4425863.3905371-1.1151814.3595623-1.52-.07l-.93-1 4.4-6.97c.3691068-.5803816 1.0099482-.9310557 1.6977552-.9290267.6878071.0020289 1.3265684.3564776 1.6922448.9390267z" fill="#ecf0f1"/></g></g></svg>