<?xml version="1.0" encoding="iso-8859-1"?>
<!-- Generator: Adobe Illustrator 19.0.0, SVG Export Plug-In . SVG Version: 6.00 Build 0)  -->
<svg version="1.1" id="Capa_1" xmlns="http://www.w3.org/2000/svg" xmlns:xlink="http://www.w3.org/1999/xlink" x="0px" y="0px"
	 viewBox="0 0 400 400" style="enable-background:new 0 0 400 400;" xml:space="preserve">
<path style="fill:#FFDC69;" d="M312,0H112C94.328,0,80,14.328,80,32v8H32C14.328,40,0,54.328,0,72v40c0,17.672,14.328,32,32,32h48
	v56v104v32c0,17.68,14.32,32,32,32h24h24c0,17.672,14.328,32,32,32h96c17.672,0,32-14.328,32-32h24h24c17.672,0,32-14.328,32-32V88
	v-8L320,0H312z M272,72c0-17.672-14.328-32-32-32C257.68,40,272,54.32,272,72z M272,112c0,17.68-14.32,32-32,32
	C257.672,144,272,129.672,272,112z"/>
<path style="fill:#FF8C5A;" d="M272,72v40c0,17.672-14.328,32-32,32H32c-17.672,0-32-14.328-32-32V72c0-17.672,14.328-32,32-32h208
	C257.672,40,272,54.328,272,72z"/>
<path style="fill:#FEEC9F;" d="M288,400h-96c-17.672,0-32-14.328-32-32v-80c0-17.672,14.328-32,32-32h96c17.672,0,32,14.328,32,32
	v80C320,385.672,305.672,400,288,400z"/>
<polygon style="fill:#FFFFFF;" points="224,304 224,352 264,328 "/>
<path style="fill:#FFB855;" d="M320,0h-8v56c0,17.672,14.328,32,32,32h56v-8L320,0z"/>
<g>
	<rect x="24" y="104" style="fill:#FFFFFF;" width="16" height="16"/>
	<path style="fill:#FFFFFF;" d="M68.208,103.136c0-3.6-0.504-8.472-1.024-12.872l2.232,6.536l7.712,18.752h6.456l7.72-18.792
		l2.432-6.84c-0.544,4.496-1.064,9.52-1.064,13.216v16.824h15V64.168H91.424l-8.36,23.048l-2.368,6.976l-2.376-7l-8.696-23.016
		h-16.24v55.792h14.832v-16.832H68.208z"/>
	<path style="fill:#FFFFFF;" d="M141.592,120.96c15.784,0,25.984-11.44,25.984-29.144c0-17.672-9.952-28.648-25.984-28.648
		s-25.984,10.976-25.984,28.648C115.608,109.52,125.808,120.96,141.592,120.96z M141.592,77.168c6.04,0,9.656,5.48,9.656,14.648
		c0,9.336-3.696,15.144-9.656,15.144s-9.648-5.808-9.648-15.144C131.944,82.648,135.544,77.168,141.592,77.168z"/>
	<path style="fill:#FFFFFF;" d="M184.048,119.96h18.576l16.48-55.792h-16.448l-5.648,24.288c-0.64,2.584-1.208,5.136-1.776,7.688
		c-0.496,2.232-1.008,4.52-1.568,6.832c-0.464-1.96-0.888-3.896-1.312-5.792c-0.624-2.856-1.272-5.808-2.04-8.736l-5.816-24.288
		h-16.944l16.304,55.192L184.048,119.96z"/>
</g>
<g>
</g>
<g>
</g>
<g>
</g>
<g>
</g>
<g>
</g>
<g>
</g>
<g>
</g>
<g>
</g>
<g>
</g>
<g>
</g>
<g>
</g>
<g>
</g>
<g>
</g>
<g>
</g>
<g>
</g>
</svg>
