<svg id="color" enable-background="new 0 0 24 24" height="512" viewBox="0 0 24 24" width="512" xmlns="http://www.w3.org/2000/svg"><path d="m13.25 0h-10.5c-1.52 0-2.75 1.23-2.75 2.75v15.5c0 1.52 1.23 2.75 2.75 2.75h6.03c.06-.16.15-.31.25-.46l5.24-8.51c.38-.65 1-1.13 1.73-1.36v-7.92c0-1.52-1.23-2.75-2.75-2.75z" fill="#eceff1"/><path d="m8 0h-5.25c-1.52 0-2.75 1.23-2.75 2.75v15.5c0 1.52 1.23 2.75 2.75 2.75h5.25z" fill="#cdd0d2"/><path d="m22.288 24h-10.576c-.944 0-1.712-.765-1.712-1.705 0-.335.095-.652.273-.916l5.271-8.564c.293-.498.853-.815 1.456-.815s1.163.317 1.464.827l5.28 8.579c.161.238.256.554.256.889 0 .94-.768 1.705-1.712 1.705z" fill="#ffc107"/><path d="m17 20c-.414 0-.75-.336-.75-.75v-3.5c0-.414.336-.75.75-.75s.75.336.75.75v3.5c0 .414-.336.75-.75.75z" fill="#fff"/><path d="m17 22c-.101 0-.2-.02-.29-.06s-.17-.09-.24-.16c-.14-.14-.22-.33-.22-.53s.08-.39.22-.53c.07-.07.15-.12.24-.16.189-.08.39-.08.58 0 .09.04.17.09.24.16.14.14.22.33.22.53s-.08.39-.22.53c-.07.07-.15.12-.24.16-.101.04-.19.06-.29.06z" fill="#fff"/><path d="m13 10c0 2.758-2.242 5-5 5-1.383 0-2.633-.558-3.533-1.467l3.533-3.533v-5c2.758 0 5 2.242 5 5z" fill="#2196f3"/><path d="m8 5v5l-3.533 3.533c-.909-.9-1.467-2.15-1.467-3.533 0-2.758 2.242-5 5-5z" fill="#ffc107"/><path d="m13 10h-5l-3.533 3.533c.899.908 2.149 1.467 3.533 1.467 2.759 0 5-2.241 5-5z" fill="#1d83d4"/><path d="m8 10h-5c0 1.384.559 2.634 1.467 3.533z" fill="#dea806"/><path d="m17 12c-.603 0-1.163.317-1.456.815l-5.271 8.564c-.178.265-.273.581-.273.916 0 .94.768 1.705 1.712 1.705h5.288v-2c-.101 0-.2-.02-.29-.06l-.24-.16c-.14-.14-.22-.33-.22-.53s.08-.39.22-.53l.24-.16c.095-.04.192-.06.29-.06v-.5c-.414 0-.75-.336-.75-.75v-3.5c0-.414.336-.75.75-.75z" fill="#dea806"/><g fill="#dedede"><path d="m17 15c-.414 0-.75.336-.75.75v3.5c0 .414.336.75.75.75z"/><path d="m17 20.5c-.098 0-.195.02-.29.06l-.24.16c-.14.14-.22.33-.22.53s.08.39.22.53l.24.16c.09.04.189.06.29.06z"/></g></svg>