<svg id="Capa_1" enable-background="new 0 0 511.962 511.962" height="512" viewBox="0 0 511.962 511.962" width="512" xmlns="http://www.w3.org/2000/svg"><path id="XMLID_879_" d="m117.981 501.962v-491.962h296l64 63.962v428z" fill="#eff3f3"/><path id="XMLID_878_" d="m413.981 9.962v64h64z" fill="#ffe6c0"/><path id="XMLID_2662_" d="m337.981 341.962h-264c-22.091 0-40 17.909-40 40v80c0 22.091 17.909 40 40 40h264c22.091 0 40-17.909 40-40v-80c0-22.091-17.909-40-40-40z" fill="#cbe558"/><path id="XMLID_2751_" d="m177.981 119.962h240v176h-240z" fill="#b0e7f8"/><path id="XMLID_2750_" d="m417.981 295.962v-53.712l-72.758-72.757-67.51 67.51-20.268-20.268-79.227 79.227z" fill="#cbe558"/><path id="XMLID_342_" d="m485.05 66.889-64-63.962c-1.875-1.874-4.418-2.927-7.069-2.927h-296c-5.523 0-10 4.477-10 10v321.962h-34c-27.57 0-50 22.43-50 50v80c0 27.57 22.43 50 50 50h264 140c5.523 0 10-4.477 10-10v-200.873c0-5.523-4.477-10-10-10s-10 4.477-10 10v190.873h-90.027c6.292-8.363 10.027-18.753 10.027-30v-80c0-27.57-22.43-50-50-50h-210v-311.962h276v53.962c0 5.523 4.477 10 10 10h54v127.127c0 5.523 4.477 10 10 10s10-4.477 10-10v-137.127c0-2.653-1.054-5.198-2.931-7.073zm-117.069 315.073v80c0 16.542-13.458 30-30 30h-264c-16.542 0-30-13.458-30-30v-80c0-16.542 13.458-30 30-30h264c16.542 0 30 13.458 30 30zm56-347.83 29.848 29.83h-29.848z"/><path id="XMLID_344_" d="m477.981 246.092c-2.63 0-5.21 1.06-7.07 2.93-1.86 1.86-2.93 4.43-2.93 7.07 0 2.63 1.07 5.21 2.93 7.07s4.44 2.93 7.07 2.93 5.21-1.07 7.07-2.93 2.93-4.44 2.93-7.07c0-2.64-1.07-5.21-2.93-7.07-1.86-1.87-4.44-2.93-7.07-2.93z"/><path id="XMLID_347_" d="m93.981 371.962c-5.523 0-10 4.477-10 10v23.908 16.092 40c0 5.523 4.477 10 10 10s10-4.477 10-10v-30h14c16.542 0 30-13.458 30-30s-13.458-30-30-30zm34 30c0 5.514-4.486 10-10 10h-14v-6.092-13.908h14c5.514 0 10 4.486 10 10z"/><path id="XMLID_348_" d="m177.981 471.962c5.523 0 10-4.477 10-10v-48.276l37.808 54.011c1.907 2.724 4.992 4.267 8.193 4.266 1.001 0 2.014-.15 3.005-.463 4.163-1.313 6.994-5.173 6.994-9.538v-80c0-5.523-4.477-10-10-10s-10 4.477-10 10v48.276l-37.808-54.011c-2.503-3.576-7.036-5.114-11.199-3.803-4.163 1.313-6.994 5.173-6.994 9.538v80c.001 5.523 4.478 10 10.001 10z"/><path id="XMLID_349_" d="m285.481 471.962h21c11.855 0 21.5-9.645 21.5-21.5v-26c0-.042-.006-.083-.006-.125.001-.042.006-.083.006-.125 0-5.523-4.477-10-10-10h-11.5c-5.523 0-10 4.477-10 10s4.477 10 10 10h1.5v16.25c0 .827-.673 1.5-1.5 1.5h-21c-.827 0-1.5-.673-1.5-1.5v-57c0-.827.673-1.5 1.5-1.5h21c.827 0 1.5.673 1.5 1.5 0 5.523 4.477 10 10 10s10-4.477 10-10c0-11.855-9.645-21.5-21.5-21.5h-21c-11.855 0-21.5 9.645-21.5 21.5v57c0 11.855 9.645 21.5 21.5 21.5z"/><path id="XMLID_797_" d="m177.981 109.962c-5.523 0-10 4.477-10 10v176c0 5.523 4.477 10 10 10h240c5.523 0 10-4.477 10-10v-176c0-5.523-4.477-10-10-10zm230 20v88.146l-55.687-55.687c-3.905-3.905-10.237-3.905-14.143 0l-60.439 60.439-13.197-13.197c-1.875-1.875-4.419-2.929-7.071-2.929s-5.196 1.054-7.071 2.929l-62.393 62.393v-142.094zm-137.347 114.104c.003.003.005.006.007.008s.006.005.008.007l41.88 41.88h-110.168l55.085-55.085zm70.18 41.896-48.958-48.959 53.368-53.368 62.758 62.758v39.569z"/><path id="XMLID_881_" d="m257.251 173.632c2.63 0 5.21-1.06 7.07-2.93 1.86-1.85 2.93-4.43 2.93-7.06 0-2.64-1.07-5.22-2.93-7.08s-4.44-2.93-7.07-2.93-5.21 1.07-7.07 2.93-2.93 4.44-2.93 7.08c0 2.63 1.07 5.21 2.93 7.06 1.86 1.87 4.44 2.93 7.07 2.93z"/></svg>