<svg height="512" viewBox="0 0 50 60" width="512" xmlns="http://www.w3.org/2000/svg"><g id="Page-1" fill="none" fill-rule="evenodd"><g id="034---Zip-File" fill-rule="nonzero"><g id="Icons" transform="translate(1 1)"><path id="Shape" d="m0 4c0-2.209139 1.790861-4 4-4h40c2.209139 0 4 1.790861 4 4v40l-12 12h-32c-2.209139 0-4-1.790861-4-4z" fill="#ffe0b2"/><path id="Shape" d="m44 0h-3c2.209139 0 4 1.790861 4 4v40l-12 12h3l12-12v-40c0-2.209139-1.790861-4-4-4z" fill="#dfc49c"/><path id="Shape" d="m36 56v-8c0-2.209139 1.790861-4 4-4h8" fill="#91562d"/><rect id="Rectangle-path" fill="#ff9801" height="6" rx="1" width="8" x="20.002" y="40"/><path id="Shape" d="m27 40h-3c.5522847 0 1 .4477153 1 1v4c0 .5522847-.4477153 1-1 1h3c.5522847 0 1-.4477153 1-1v-4c0-.5522847-.4477153-1-1-1z" fill="#f57c00"/><path id="Shape" d="m27 46 3.846 9.231c.2570836.6172178.188733 1.3220768-.1821494 1.8784004-.3708824.5563237-.9952328.890516-1.6638506.8905996h-10c-.6686178-.0000836-1.2929682-.3342759-1.6638506-.8905996-.3708824-.5563236-.439233-1.2611826-.1821494-1.8784004l3.846-9.231z" fill="#ff9801"/><path id="Shape" d="m30.848 55.231-3.848-9.231h-3l3.846 9.231c.2570836.6172178.188733 1.3220768-.1821494 1.8784004-.3708824.5563237-.9952328.890516-1.6638506.8905996h3c.6689721.0005855 1.2939389-.3333341 1.6652962-.8897671.3713572-.5564331.4399239-1.2616879.1827038-1.8792329z" fill="#f57c00"/></g><g id="Layer_2" fill="#000"><path id="Shape" d="m45 0h-40c-2.76005315.00330612-4.99669388 2.23994685-5 5v48c.00330612 2.7600532 2.23994685 4.9966939 5 5h12.173c.4236083 1.1981457 1.5561748 1.9993954 2.827 2h10c1.2715592.0002428 2.4051469-.8011624 2.829-2h4.171c.2651948-.0000566.5195073-.1054506.707-.293l12-12c.1875494-.1874927.2929434-.4418052.293-.707v-40c-.0033061-2.76005315-2.2399468-4.99669388-5-5zm3 5v39h-7c-2.7600532.0033061-4.9966939 2.2399468-5 5v7h-3.186c-.018-.051-.022-.1-.043-.154l-3.471-8.335c.4430958-.3770465.6988894-.9291953.7-1.511v-4c0-1.1045695-.8954305-2-2-2h-2v-38h19c1.6568542 0 3 1.34314575 3 3zm-1.414 41-8.586 8.586v-5.586c0-1.6568542 1.3431458-3 3-3zm-18.586-4v4h-6v-4zm-26 11v-48c0-1.65685425 1.34314575-3 3-3h19v38h-2c-1.1045695 0-2 .8954305-2 2v4c.0011106.5818047.2569042 1.1339535.7 1.511l-3.474 8.335c-.02.05-.024.1-.042.154h-12.184c-1.65685425 0-3-1.3431458-3-3zm28.834 4.555c-.1838815.2808966-.4982889.4486559-.834.445h-10c-.3341761-.0001113-.6462108-.1671406-.8316247-.445161-.1854139-.2780205-.2196989-.6302831-.0913753-.938839l3.591-8.616h4.667l3.59 8.616c.1310883.308145.0968188.6617607-.091.939z"/><path id="Shape" d="m45 36c.5522847 0 1-.4477153 1-1v-14c0-.5522847-.4477153-1-1-1s-1 .4477153-1 1v14c0 .5522847.4477153 1 1 1z"/><path id="Shape" d="m45 42c.5522847 0 1-.4477153 1-1v-2c0-.5522847-.4477153-1-1-1s-1 .4477153-1 1v2c0 .5522847.4477153 1 1 1z"/><path id="Shape" d="m21 6h1c.5522847 0 1-.44771525 1-1s-.4477153-1-1-1h-1c-.5522847 0-1 .44771525-1 1s.4477153 1 1 1z"/><path id="Shape" d="m21 10h1c.5522847 0 1-.44771525 1-1s-.4477153-1-1-1h-1c-.5522847 0-1 .44771525-1 1s.4477153 1 1 1z"/><path id="Shape" d="m21 14h1c.5522847 0 1-.4477153 1-1s-.4477153-1-1-1h-1c-.5522847 0-1 .4477153-1 1s.4477153 1 1 1z"/><path id="Shape" d="m21 18h1c.5522847 0 1-.4477153 1-1s-.4477153-1-1-1h-1c-.5522847 0-1 .4477153-1 1s.4477153 1 1 1z"/><path id="Shape" d="m21 22h1c.5522847 0 1-.4477153 1-1s-.4477153-1-1-1h-1c-.5522847 0-1 .4477153-1 1s.4477153 1 1 1z"/><path id="Shape" d="m21 26h1c.5522847 0 1-.4477153 1-1s-.4477153-1-1-1h-1c-.5522847 0-1 .4477153-1 1s.4477153 1 1 1z"/><path id="Shape" d="m21 30h1c.5522847 0 1-.4477153 1-1s-.4477153-1-1-1h-1c-.5522847 0-1 .4477153-1 1s.4477153 1 1 1z"/><path id="Shape" d="m21 34h1c.5522847 0 1-.4477153 1-1s-.4477153-1-1-1h-1c-.5522847 0-1 .4477153-1 1s.4477153 1 1 1z"/><path id="Shape" d="m21 38h1c.5522847 0 1-.4477153 1-1s-.4477153-1-1-1h-1c-.5522847 0-1 .4477153-1 1s.4477153 1 1 1z"/><path id="Shape" d="m28 8h1c.5522847 0 1-.44771525 1-1s-.4477153-1-1-1h-1c-.5522847 0-1 .44771525-1 1s.4477153 1 1 1z"/><path id="Shape" d="m28 12h1c.5522847 0 1-.4477153 1-1s-.4477153-1-1-1h-1c-.5522847 0-1 .4477153-1 1s.4477153 1 1 1z"/><path id="Shape" d="m28 16h1c.5522847 0 1-.4477153 1-1s-.4477153-1-1-1h-1c-.5522847 0-1 .4477153-1 1s.4477153 1 1 1z"/><path id="Shape" d="m28 20h1c.5522847 0 1-.4477153 1-1s-.4477153-1-1-1h-1c-.5522847 0-1 .4477153-1 1s.4477153 1 1 1z"/><path id="Shape" d="m28 24h1c.5522847 0 1-.4477153 1-1s-.4477153-1-1-1h-1c-.5522847 0-1 .4477153-1 1s.4477153 1 1 1z"/><path id="Shape" d="m28 28h1c.5522847 0 1-.4477153 1-1s-.4477153-1-1-1h-1c-.5522847 0-1 .4477153-1 1s.4477153 1 1 1z"/><path id="Shape" d="m28 32h1c.5522847 0 1-.4477153 1-1s-.4477153-1-1-1h-1c-.5522847 0-1 .4477153-1 1s.4477153 1 1 1z"/><path id="Shape" d="m29 34h-1c-.5522847 0-1 .4477153-1 1s.4477153 1 1 1h1c.5522847 0 1-.4477153 1-1s-.4477153-1-1-1z"/><path id="Shape" d="m26 54h-2c-.5522847 0-1 .4477153-1 1s.4477153 1 1 1h2c.5522847 0 1-.4477153 1-1s-.4477153-1-1-1z"/></g></g></g></svg>